<?xml version="1.0" encoding="utf-8"?>
<!-- Generator: Adobe Illustrator 27.5.0, SVG Export Plug-In . SVG Version: 6.00 Build 0)  -->
<svg version="1.1" xmlns="http://www.w3.org/2000/svg" xmlns:xlink="http://www.w3.org/1999/xlink" x="0px" y="0px"
	 viewBox="0 0 500 500" style="enable-background:new 0 0 500 500;" xml:space="preserve">
<g id="BACKGROUND">
	<rect style="fill:#FFFFFF;" width="500" height="500"/>
</g>
<g id="OBJECTS">
	<g>
		<polygon style="fill:#CEC1A3;" points="218.209,220.808 247.479,171.064 232.212,149.091 176.957,173.312 159.548,227.81 
			183.77,252.031 198.908,216.456 213.29,279.28 248.334,249.628 		"/>
		<polygon style="fill:#AC8746;" points="267.787,149.091 323.041,173.312 340.451,227.81 316.228,252.031 301.091,216.456 
			286.709,279.28 217.829,220.998 		"/>
		<path style="fill:#F2EBDD;" d="M234.483,218.726c0,2.77-2.244,5.015-5.014,5.015c-2.77,0-5.015-2.246-5.015-5.015
			c0-2.77,2.245-5.015,5.015-5.015C232.239,213.711,234.483,215.956,234.483,218.726z"/>
		<polygon style="opacity:0.3;fill:#CEC1A3;" points="198.908,216.456 176.957,173.312 159.548,227.81 		"/>
		<polygon style="opacity:0.4;fill:#AC8746;" points="301.092,216.456 323.042,173.312 340.451,227.81 		"/>
		
			<line style="fill:none;stroke:#F2EBDD;stroke-width:2;stroke-linecap:round;stroke-miterlimit:10;" x1="229.469" y1="218.726" x2="288.602" y2="218.726"/>
	</g>
</g>
<g id="TEXTS">
	<text transform="matrix(1 0 0 1 149.3583 319.9619)" style="fill:#083555; font-family:'Poppins-Bold'; font-size:34.3718px;">CLOTHING</text>
	<text transform="matrix(1 0 0 1 183.1938 342.9102)" style="fill:#1B7C9E; font-family:'Poppins-Regular'; font-size:13.9834px;">YOUR STORE</text>
</g>
</svg>
